<svg width="152" height="66" viewBox="0 0 152 66" fill="none" xmlns="http://www.w3.org/2000/svg">
<path d="M140.321 21.088V5.8224H141.711V12.7137H141.972L149.011 5.8224H150.967L143.102 13.368L151.227 21.088H149.25L141.972 14.0658H141.711V21.088H140.321Z" fill="white"/>
<path d="M126.614 21.088V5.8224H132.567C133.509 5.8224 134.334 5.98233 135.044 6.30218C135.768 6.62203 136.333 7.08727 136.739 7.69789C137.159 8.29398 137.369 9.02091 137.369 9.87869V10.0968C137.369 11.129 137.123 11.9432 136.63 12.5393C136.138 13.1208 135.558 13.5061 134.892 13.6951V13.9568C135.399 13.9713 135.826 14.1313 136.174 14.4366C136.522 14.7419 136.695 15.2289 136.695 15.8977V21.088H135.305V16.0504C135.305 15.5851 135.174 15.2289 134.914 14.9818C134.668 14.7346 134.291 14.611 133.784 14.611H128.005V21.088H126.614ZM128.005 13.3462H132.437C133.567 13.3462 134.436 13.0845 135.044 12.5611C135.667 12.0231 135.978 11.2599 135.978 10.2712V10.1622C135.978 9.17357 135.674 8.41756 135.066 7.89416C134.472 7.35623 133.596 7.08727 132.437 7.08727H128.005V13.3462Z" fill="white"/>
<path d="M111.711 21.088L116.687 5.8224H119.164L124.139 21.088H122.683L121.38 17.0317H114.471L113.167 21.088H111.711ZM114.862 15.7669H120.989L118.056 6.65111H117.795L114.862 15.7669Z" fill="white"/>
<path d="M94.3217 21.088V5.8224H97.0375L101.643 20.2593H101.904L106.51 5.8224H109.226V21.088H107.879V6.65111H107.618L103.012 21.088H100.535L95.9295 6.65111H95.6687V21.088H94.3217Z" fill="white"/>
<path d="M81.857 21.088V5.8224H91.6339V8.43936H84.7249V12.0813H91.0256V14.6983H84.7249V18.471H91.7643V21.088H81.857Z" fill="white"/>
<path d="M72.6039 21.088V8.43936H68.1717V5.8224H79.904V8.43936H75.4718V21.088H72.6039Z" fill="white"/>
<path d="M63.3556 21.088V5.8224H66.2235V21.088H63.3556Z" fill="white"/>
<path d="M49.6281 21.088V5.8224H56.2329C57.1889 5.8224 58.0217 5.9896 58.7314 6.32399C59.4412 6.65838 59.9916 7.13088 60.3827 7.74151C60.7737 8.35213 60.9693 9.0718 60.9693 9.9005V10.1622C60.9693 11.0781 60.752 11.8196 60.3175 12.3866C59.8829 12.9536 59.347 13.368 58.7097 13.6297V14.0222C59.2891 14.0513 59.7381 14.2548 60.0568 14.6328C60.3754 14.9963 60.5347 15.4833 60.5347 16.094V21.088H57.6668V16.5083C57.6668 16.1594 57.5727 15.8759 57.3844 15.6578C57.2106 15.4397 56.9137 15.3307 56.4936 15.3307H52.496V21.088H49.6281ZM52.496 12.7137H55.9287C56.6095 12.7137 57.1382 12.532 57.5148 12.1685C57.9058 11.7905 58.1014 11.2962 58.1014 10.6856V10.4675C58.1014 9.85688 57.9131 9.36984 57.5365 9.00637C57.1599 8.62837 56.624 8.43936 55.9287 8.43936H52.496V12.7137Z" fill="white"/>
<path d="M130.518 34.544V31.4593L127.701 26.7488H128.544L130.807 30.6464H130.94L133.203 26.7488H134.046L131.229 31.4593V34.544H130.518Z" fill="white"/>
<path d="M121.608 34.544V26.7488H124.648C125.129 26.7488 125.55 26.8305 125.913 26.9938C126.283 27.1571 126.571 27.3947 126.778 27.7065C126.993 28.0109 127.1 28.3821 127.1 28.8201V28.9315C127.1 29.4586 126.974 29.8743 126.723 30.1787C126.471 30.4756 126.175 30.6724 125.835 30.7689V30.9025C126.094 30.9099 126.312 30.9916 126.49 31.1475C126.667 31.3034 126.756 31.5521 126.756 31.8936V34.544H126.046V31.9716C126.046 31.734 125.979 31.5521 125.846 31.4259C125.72 31.2997 125.528 31.2366 125.269 31.2366H122.318V34.544H121.608ZM122.318 30.5907H124.581C125.158 30.5907 125.602 30.4571 125.913 30.1898C126.231 29.9151 126.39 29.5254 126.39 29.0205V28.9649C126.39 28.46 126.234 28.074 125.924 27.8067C125.621 27.532 125.173 27.3947 124.581 27.3947H122.318V30.5907Z" fill="white"/>
<path d="M116.959 34.6999C116.05 34.6999 115.325 34.4326 114.785 33.8981C114.245 33.3562 113.975 32.5655 113.975 31.5261V29.7667C113.975 28.7273 114.245 27.9404 114.785 27.4058C115.325 26.8639 116.05 26.5929 116.959 26.5929C117.869 26.5929 118.594 26.8639 119.134 27.4058C119.674 27.9404 119.944 28.7273 119.944 29.7667V31.5261C119.944 32.5655 119.674 33.3562 119.134 33.8981C118.594 34.4326 117.869 34.6999 116.959 34.6999ZM116.959 34.054C117.684 34.054 118.243 33.835 118.635 33.397C119.034 32.959 119.234 32.3428 119.234 31.5484V29.7444C119.234 28.95 119.034 28.3338 118.635 27.8958C118.243 27.4578 117.684 27.2388 116.959 27.2388C116.242 27.2388 115.684 27.4578 115.284 27.8958C114.885 28.3338 114.685 28.95 114.685 29.7444V31.5484C114.685 32.3428 114.885 32.959 115.284 33.397C115.684 33.835 116.242 34.054 116.959 34.054Z" fill="white"/>
<path d="M110.007 34.544V27.3947H107.411V26.7488H113.313V27.3947H110.717V34.544H110.007Z" fill="white"/>
<path d="M103.894 34.6999C102.984 34.6999 102.255 34.4326 101.708 33.8981C101.168 33.3562 100.898 32.5655 100.898 31.5261V29.7667C100.898 28.7273 101.168 27.9404 101.708 27.4058C102.255 26.8639 102.984 26.5929 103.894 26.5929C104.796 26.5929 105.484 26.849 105.957 27.3613C106.438 27.8661 106.678 28.5565 106.678 29.4326V29.4883H105.968V29.4103C105.968 28.7718 105.798 28.2522 105.458 27.8513C105.125 27.4429 104.604 27.2388 103.894 27.2388C103.176 27.2388 102.614 27.4578 102.207 27.8958C101.808 28.3338 101.608 28.95 101.608 29.7444V31.5484C101.608 32.3428 101.808 32.959 102.207 33.397C102.614 33.835 103.176 34.054 103.894 34.054C104.604 34.054 105.125 33.8536 105.458 33.4527C105.798 33.0444 105.968 32.521 105.968 31.8825V31.7155H106.678V31.8602C106.678 32.7363 106.438 33.4304 105.957 33.9427C105.484 34.4475 104.796 34.6999 103.894 34.6999Z" fill="white"/>
<path d="M96.504 34.6999C95.9493 34.6999 95.4611 34.6034 95.0396 34.4104C94.6254 34.2099 94.2999 33.9092 94.0633 33.5083C93.8266 33.1075 93.7082 32.6026 93.7082 31.9939V26.7488H94.4183V31.9939C94.4183 32.6917 94.5995 33.2114 94.9619 33.5529C95.3317 33.887 95.8457 34.054 96.504 34.054C97.1623 34.054 97.6726 33.887 98.035 33.5529C98.4048 33.2114 98.5897 32.6917 98.5897 31.9939V26.7488H99.2998V31.9939C99.2998 32.6026 99.1814 33.1075 98.9448 33.5083C98.7155 33.9092 98.39 34.2099 97.9685 34.4104C97.5469 34.6034 97.0587 34.6999 96.504 34.6999Z" fill="white"/>
<path d="M86.0075 34.544V33.8981H87.117V27.3947H86.0075V26.7488H88.9586C89.9719 26.7488 90.7596 27.0086 91.3217 27.5283C91.8912 28.0406 92.176 28.8424 92.176 29.9337V31.3702C92.176 32.4616 91.8912 33.2634 91.3217 33.7756C90.7596 34.2879 89.9719 34.544 88.9586 34.544H86.0075ZM87.827 33.8981H88.9586C89.7722 33.8981 90.3935 33.7014 90.8225 33.3079C91.2515 32.9144 91.466 32.2797 91.466 31.4036V29.9003C91.466 29.0168 91.2515 28.3821 90.8225 27.996C90.3935 27.6026 89.7722 27.4058 88.9586 27.4058H87.827V33.8981Z" fill="white"/>
<path d="M82.073 34.6999C81.1632 34.6999 80.4384 34.4326 79.8985 33.8981C79.3585 33.3562 79.0886 32.5655 79.0886 31.5261V29.7667C79.0886 28.7273 79.3585 27.9404 79.8985 27.4058C80.4384 26.8639 81.1632 26.5929 82.073 26.5929C82.9827 26.5929 83.7075 26.8639 84.2475 27.4058C84.7874 27.9404 85.0573 28.7273 85.0573 29.7667V31.5261C85.0573 32.5655 84.7874 33.3562 84.2475 33.8981C83.7075 34.4326 82.9827 34.6999 82.073 34.6999ZM82.073 34.054C82.7978 34.054 83.3562 33.835 83.7482 33.397C84.1476 32.959 84.3473 32.3428 84.3473 31.5484V29.7444C84.3473 28.95 84.1476 28.3338 83.7482 27.8958C83.3562 27.4578 82.7978 27.2388 82.073 27.2388C81.3555 27.2388 80.7971 27.4578 80.3977 27.8958C79.9983 28.3338 79.7986 28.95 79.7986 29.7444V31.5484C79.7986 32.3428 79.9983 32.959 80.3977 33.397C80.7971 33.835 81.3555 34.054 82.073 34.054Z" fill="white"/>
<path d="M72.3337 34.544V26.7488H75.3735C75.8543 26.7488 76.2759 26.8305 76.6383 26.9938C77.0081 27.1571 77.2966 27.3947 77.5037 27.7065C77.7181 28.0109 77.8254 28.3821 77.8254 28.8201V28.9315C77.8254 29.4586 77.6997 29.8743 77.4482 30.1787C77.1967 30.4756 76.9009 30.6724 76.5606 30.7689V30.9025C76.8195 30.9099 77.0377 30.9916 77.2152 31.1475C77.3927 31.3034 77.4815 31.5521 77.4815 31.8936V34.544H76.7714V31.9716C76.7714 31.734 76.7049 31.5521 76.5717 31.4259C76.446 31.2997 76.2537 31.2366 75.9948 31.2366H73.0437V34.544H72.3337ZM73.0437 30.5907H75.307C75.8839 30.5907 76.3276 30.4571 76.6383 30.1898C76.9563 29.9151 77.1153 29.5254 77.1153 29.0205V28.9649C77.1153 28.46 76.96 28.074 76.6494 27.8067C76.3461 27.532 75.8987 27.3947 75.307 27.3947H73.0437V30.5907Z" fill="white"/>
<path d="M65.6814 34.544V26.7488H68.5548C69.0134 26.7488 69.4239 26.8379 69.7863 27.0161C70.1561 27.1868 70.4483 27.4355 70.6628 27.7622C70.8773 28.0888 70.9845 28.486 70.9845 28.9537V29.0874C70.9845 29.5551 70.8736 29.956 70.6517 30.29C70.4372 30.6167 70.145 30.8654 69.7752 31.0362C69.4128 31.2069 69.006 31.2923 68.5548 31.2923H66.3914V34.544H65.6814ZM66.3914 30.6464H68.4772C69.0319 30.6464 69.4683 30.5091 69.7863 30.2344C70.1117 29.9597 70.2745 29.5736 70.2745 29.0762V28.9649C70.2745 28.46 70.1154 28.074 69.7974 27.8067C69.4868 27.532 69.0467 27.3947 68.4772 27.3947H66.3914V30.6464Z" fill="white"/>
<path d="M58.3186 34.544V31.4593L55.5006 26.7488H56.3438L58.607 30.6464H58.7402L61.0034 26.7488H61.8466L59.0286 31.4593V34.544H58.3186Z" fill="white"/>
<path d="M48.7267 34.544V33.8981H49.8361V27.3947H48.7267V26.7488H52.5764C53.0202 26.7488 53.4159 26.8305 53.7635 26.9938C54.1111 27.1571 54.3811 27.3873 54.5734 27.6842C54.7731 27.9738 54.8729 28.3115 54.8729 28.6976V28.7867C54.8729 29.1505 54.8027 29.4511 54.6621 29.6887C54.5216 29.9263 54.3515 30.1119 54.1518 30.2455C53.9521 30.3791 53.7561 30.4756 53.5638 30.535V30.6687C53.7561 30.7132 53.9521 30.806 54.1518 30.9471C54.3589 31.0807 54.529 31.2663 54.6621 31.5039C54.8027 31.7414 54.8729 32.0421 54.8729 32.4059V32.5172C54.8729 32.9404 54.7694 33.3042 54.5623 33.6086C54.3626 33.913 54.0852 34.1468 53.7302 34.3101C53.3826 34.466 52.9869 34.544 52.5431 34.544H48.7267ZM50.5461 33.8981H52.4765C53.0313 33.8981 53.4492 33.7682 53.7302 33.5083C54.0187 33.2485 54.1629 32.8996 54.1629 32.4616V32.3725C54.1629 31.9345 54.0187 31.5855 53.7302 31.3257C53.4492 31.0659 53.0313 30.9359 52.4765 30.9359H50.5461V33.8981ZM50.5461 30.29H52.5209C53.0313 30.29 53.4307 30.1638 53.7191 29.9114C54.015 29.6516 54.1629 29.3138 54.1629 28.898V28.7867C54.1629 28.3709 54.015 28.0369 53.7191 27.7844C53.4307 27.5246 53.0313 27.3947 52.5209 27.3947H50.5461V30.29Z" fill="white"/>
<g filter="url(#filter0_dd_5_60)">
<path fill-rule="evenodd" clip-rule="evenodd" d="M17.8917 2.8933C18.9313 2.12631 19.9866 2.14103 21.244 2.22844C21.7507 2.2611 22.2565 2.30652 22.7609 2.36471C26.7397 2.85986 30.8997 4.42223 32.5088 8.44361C32.8055 9.18526 33.0303 9.93826 33.266 10.7008L34.1868 13.6941C34.3102 14.0989 35.1152 16.5109 35.103 16.7785L35.1558 16.9357C35.278 17.3061 35.3899 17.7017 35.4335 18.0814C35.5862 19.4121 35.2181 21.051 34.6424 22.2482C33.6835 24.2423 32.0794 25.7197 30.1944 26.805C29.8573 26.9992 29.5188 27.1685 29.1866 27.3511L29.0447 27.4302C29.6165 28.1429 30.3115 29.1569 30.8565 29.9058L37.4345 38.9615C37.8709 39.5627 38.4937 40.3757 38.926 41.0317H28.4519C27.7153 40.7824 27.0539 40.4429 26.7186 39.99C26.1717 39.2511 25.5249 38.3414 24.9732 37.5834L21.2653 32.4619L19.8281 30.4673C19.4317 29.9232 18.9868 29.3766 18.6965 28.77C18.0237 27.3644 18.0416 25.6173 18.9824 24.337C19.3899 23.7825 19.9464 23.2898 20.4429 22.8087L22.2729 21.0267L23.882 19.4637C24.1235 19.2326 24.4218 18.9322 24.6846 18.7171L24.7367 18.6752L24.7879 18.6144C25.3132 18.0107 25.7213 18.126 26.4644 18.0291C27.5056 17.8873 28.5407 17.606 29.4466 17.0528C30.7784 16.2395 31.609 15.1564 32.0054 13.6477C30.4171 12.745 28.0702 12.0753 26.2544 11.948C25.7862 11.9151 25.2093 11.9245 24.7338 11.924L22.3933 11.9242C20.6309 11.9312 18.8685 11.9289 17.1062 11.9173L16.351 11.9118L16.3519 41.0317H8.01679C7.98065 38.6982 8.01412 36.9852 8.01401 34.6429L8.01212 13.195C8.01093 11.52 8.05451 10.0373 9.28013 8.73249C9.88899 8.08438 10.5687 7.68783 11.3017 7.21017L13.0045 6.09609C14.5939 5.04448 16.1895 4.00246 17.7912 2.97005L17.8917 2.8933ZM25.0386 21.3176C25.0828 21.4334 25.1298 21.5481 25.1792 21.6617C25.2287 21.7752 25.2807 21.8877 25.3349 21.9993C25.3891 22.1108 25.4456 22.2214 25.504 22.331C25.5332 22.3858 25.563 22.4404 25.5931 22.4947C25.6535 22.6035 25.7157 22.7115 25.7795 22.8186C25.8113 22.8722 25.8435 22.9256 25.8762 22.9788C25.5334 22.4202 25.2309 21.8417 25.006 21.2305L25.0386 21.3176ZM24.6867 20.0544C24.6975 20.117 24.7093 20.1792 24.722 20.241C24.7283 20.272 24.7349 20.3028 24.7417 20.3335C24.7552 20.395 24.7697 20.4561 24.785 20.5169C24.7469 20.365 24.7139 20.2109 24.6867 20.0544Z" fill="#FBD3D0"/>
</g>
<path d="M32.0055 13.6477C33.1596 14.3088 34.1878 15.0668 34.836 16.2638C34.9247 16.4277 35.0111 16.6246 35.103 16.7785C35.2447 17.1928 35.3836 17.6475 35.4334 18.0814C35.5861 19.4121 35.2181 21.051 34.6424 22.2482C33.6834 24.2423 32.0794 25.7197 30.1944 26.805C29.8091 27.0269 29.4222 27.2164 29.0447 27.4303L27.1531 24.8373C25.9776 23.2183 24.7773 21.5583 24.6144 19.4807C24.5913 19.1848 24.6349 18.9502 24.7367 18.6752C25.2873 18.0031 25.6973 18.1292 26.4644 18.0291C27.5055 17.8874 28.5407 17.6061 29.4467 17.0528C30.7784 16.2394 31.6091 15.1564 32.0055 13.6477Z" fill="url(#paint0_linear_5_60)"/>
<path d="M24.7367 18.6752C24.6348 18.9503 24.5912 19.1849 24.6144 19.4807C24.7773 21.5584 25.9776 23.2183 27.1531 24.8373L29.0447 27.4303C29.6165 28.143 30.3115 29.1569 30.8565 29.9059L37.4345 38.9616C37.8709 39.5628 38.4937 40.3757 38.926 41.0317H28.4519C27.7152 40.7824 27.0539 40.4429 26.7186 39.99C26.1717 39.2512 25.525 38.3414 24.9732 37.5834L21.2654 32.4618L19.8281 30.4672C19.4317 29.9231 18.9868 29.3766 18.6964 28.77C18.0237 27.3644 18.0416 25.6173 18.9824 24.337C19.39 23.7826 19.9464 23.2898 20.4429 22.8087L22.2729 21.0267L23.882 19.4636C24.1235 19.2325 24.4219 18.9322 24.6846 18.7171L24.7367 18.6752Z" fill="url(#paint1_linear_5_60)"/>
<path d="M17.7911 2.97004C18.8635 2.12546 19.9461 2.1382 21.244 2.22843C21.7507 2.26109 22.2564 2.30649 22.7609 2.36469C26.7396 2.85983 30.8997 4.42219 32.5088 8.44359C32.8055 9.18524 33.0302 9.93828 33.2659 10.7008L34.1868 13.6941C34.3102 14.0988 35.1152 16.5109 35.103 16.7785C35.0111 16.6246 34.9247 16.4277 34.836 16.2638C34.1878 15.0668 33.1596 14.3088 32.0054 13.6477C30.4172 12.745 28.0703 12.0753 26.2544 11.9479C25.7862 11.9151 25.2093 11.9246 24.7338 11.9241L22.3933 11.9242C20.3792 11.9322 18.365 11.9281 16.3509 11.9118C16.3465 9.64403 16.4257 4.90959 17.7361 3.09376C17.7609 3.05928 17.7742 3.04227 17.7862 2.99905C17.7888 2.98959 17.7895 2.97971 17.7911 2.97004Z" fill="url(#paint2_linear_5_60)"/>
<path d="M17.7911 2.97002C17.7895 2.97969 17.7889 2.98956 17.7862 2.99902C17.7742 3.04223 17.761 3.05927 17.7361 3.09374C16.4258 4.90957 16.3465 9.64405 16.351 11.9118L16.3519 41.0317H8.03958L8.01681 41.0317C7.98068 38.6982 8.01405 36.9852 8.01395 34.6429L8.01209 13.195C8.0109 11.52 8.05444 10.0374 9.28008 8.73255C9.88895 8.08442 10.5686 7.68788 11.3017 7.21022L13.0045 6.09616C14.5939 5.04455 16.1895 4.00244 17.7911 2.97002Z" fill="url(#paint3_linear_5_60)"/>
<defs>
<filter id="filter0_dd_5_60" x="0" y="2.18745" width="46.926" height="62.8442" filterUnits="userSpaceOnUse" color-interpolation-filters="sRGB">
<feFlood flood-opacity="0" result="BackgroundImageFix"/>
<feColorMatrix in="SourceAlpha" type="matrix" values="0 0 0 0 0 0 0 0 0 0 0 0 0 0 0 0 0 0 127 0" result="hardAlpha"/>
<feMorphology radius="4" operator="erode" in="SourceAlpha" result="effect1_dropShadow_5_60"/>
<feOffset dy="4"/>
<feGaussianBlur stdDeviation="2"/>
<feComposite in2="hardAlpha" operator="out"/>
<feColorMatrix type="matrix" values="0 0 0 0 0.0470588 0 0 0 0 0.0470588 0 0 0 0 0.0509804 0 0 0 0.05 0"/>
<feBlend mode="normal" in2="BackgroundImageFix" result="effect1_dropShadow_5_60"/>
<feColorMatrix in="SourceAlpha" type="matrix" values="0 0 0 0 0 0 0 0 0 0 0 0 0 0 0 0 0 0 127 0" result="hardAlpha"/>
<feMorphology radius="8" operator="erode" in="SourceAlpha" result="effect2_dropShadow_5_60"/>
<feOffset dy="16"/>
<feGaussianBlur stdDeviation="8"/>
<feComposite in2="hardAlpha" operator="out"/>
<feColorMatrix type="matrix" values="0 0 0 0 0.0470588 0 0 0 0 0.0470588 0 0 0 0 0.0509804 0 0 0 0.1 0"/>
<feBlend mode="normal" in2="effect1_dropShadow_5_60" result="effect2_dropShadow_5_60"/>
<feBlend mode="normal" in="SourceGraphic" in2="effect2_dropShadow_5_60" result="shape"/>
</filter>
<linearGradient id="paint0_linear_5_60" x1="30.0382" y1="13.6477" x2="30.0382" y2="27.4303" gradientUnits="userSpaceOnUse">
<stop stop-color="#7FAFD8"/>
<stop offset="1" stop-color="#9C86CE"/>
</linearGradient>
<linearGradient id="paint1_linear_5_60" x1="21.7058" y1="20.8497" x2="37.6671" y2="43.3968" gradientUnits="userSpaceOnUse">
<stop stop-color="#D0A9E4"/>
<stop offset="0.399038" stop-color="#C1B2E5"/>
<stop offset="0.745192" stop-color="#A6CDE9"/>
<stop offset="1" stop-color="#A1D2E8"/>
</linearGradient>
<linearGradient id="paint2_linear_5_60" x1="16.3268" y1="8.89213" x2="35.1147" y2="8.89213" gradientUnits="userSpaceOnUse">
<stop stop-color="#BE93CD"/>
<stop offset="0.5" stop-color="#BD82B8"/>
<stop offset="1" stop-color="#A6D0E6"/>
</linearGradient>
<linearGradient id="paint3_linear_5_60" x1="12.8956" y1="2.97002" x2="12.8956" y2="41.7343" gradientUnits="userSpaceOnUse">
<stop stop-color="#FBD3D0"/>
<stop offset="0.658654" stop-color="#FF91B6"/>
<stop offset="1" stop-color="#C3CDE5"/>
</linearGradient>
</defs>
</svg>
