<svg width="52" height="52" viewBox="0 0 52 52" fill="none" xmlns="http://www.w3.org/2000/svg">
<rect width="52" height="52" rx="12" fill="#011540"/>
<g filter="url(#filter0_dd_313_73)">
<path fill-rule="evenodd" clip-rule="evenodd" d="M23.3372 11.9046C24.0776 11.3583 24.8293 11.3688 25.7248 11.4311C26.0857 11.4543 26.4459 11.4867 26.8052 11.5281C29.639 11.8808 32.6019 12.9936 33.7479 15.8577C33.9593 16.3859 34.1194 16.9223 34.2873 17.4654L34.9431 19.5973C35.031 19.8856 35.6043 21.6035 35.5956 21.7941L35.6333 21.9061C35.7203 22.1699 35.8 22.4517 35.831 22.7221C35.9398 23.6699 35.6776 24.8371 35.2676 25.6898C34.5846 27.11 33.4421 28.1623 32.0995 28.9353C31.8594 29.0736 31.6184 29.1942 31.3818 29.3243L31.2807 29.3806C31.688 29.8882 32.183 30.6104 32.5711 31.1438L37.2562 37.5936C37.567 38.0218 38.0106 38.6008 38.3185 39.068H30.8585C30.3338 38.8905 29.8628 38.6486 29.624 38.3261C29.2345 37.7998 28.7738 37.1519 28.3809 36.612L25.74 32.9643L24.7163 31.5437C24.434 31.1562 24.1172 30.7669 23.9104 30.3349C23.4312 29.3337 23.4439 28.0894 24.114 27.1775C24.4043 26.7826 24.8006 26.4316 25.1542 26.089L26.4576 24.8198L27.6037 23.7066C27.7757 23.542 27.9882 23.3281 28.1753 23.1748L28.2124 23.145L28.2489 23.1017C28.623 22.6717 28.9137 22.7538 29.443 22.6848C30.1845 22.5838 30.9218 22.3835 31.567 21.9895C32.5155 21.4102 33.1071 20.6388 33.3894 19.5642C32.2582 18.9213 30.5867 18.4443 29.2933 18.3536C28.9599 18.3302 28.549 18.3369 28.2103 18.3366L26.5434 18.3367C25.2881 18.3417 24.0329 18.3401 22.7777 18.3318L22.2398 18.3279L22.2405 39.068H16.3039C16.2782 37.406 16.302 36.1859 16.302 34.5177L16.3006 19.2418C16.2998 18.0488 16.3308 16.9928 17.2037 16.0635C17.6374 15.6019 18.1215 15.3194 18.6436 14.9792L19.8564 14.1857C20.9884 13.4368 22.1248 12.6946 23.2656 11.9593L23.3372 11.9046ZM28.4274 25.027C28.4589 25.1095 28.4924 25.1912 28.5276 25.272C28.5628 25.3529 28.5999 25.4331 28.6385 25.5125C28.6771 25.5919 28.7173 25.6707 28.7589 25.7488C28.7797 25.7878 28.8009 25.8267 28.8224 25.8654C28.8654 25.9429 28.9097 26.0198 28.9551 26.0961C28.9778 26.1342 29.0007 26.1723 29.024 26.2102C28.7799 25.8123 28.5644 25.4003 28.4042 24.965L28.4274 25.027ZM28.1768 24.1273C28.1845 24.1719 28.1929 24.2162 28.2019 24.2602C28.2064 24.2823 28.2111 24.3042 28.216 24.3261C28.2256 24.3699 28.236 24.4134 28.2468 24.4567C28.2197 24.3485 28.1961 24.2388 28.1768 24.1273Z" fill="#FBD3D0"/>
</g>
<path d="M33.3896 19.5643C34.2116 20.0351 34.9439 20.575 35.4056 21.4275C35.4688 21.5443 35.5303 21.6844 35.5958 21.7941C35.6967 22.0891 35.7956 22.413 35.831 22.7221C35.9398 23.6698 35.6777 24.8371 35.2677 25.6898C34.5847 27.1101 33.4422 28.1623 32.0997 28.9353C31.8253 29.0933 31.5496 29.2283 31.2808 29.3807L29.9336 27.5338C29.0963 26.3807 28.2415 25.1984 28.1254 23.7187C28.1089 23.508 28.14 23.3409 28.2125 23.145C28.6047 22.6663 28.8967 22.7561 29.443 22.6848C30.1846 22.5839 30.9219 22.3835 31.5671 21.9895C32.5156 21.4102 33.1072 20.6388 33.3896 19.5643Z" fill="url(#paint0_linear_313_73)"/>
<path d="M28.2124 23.145C28.1399 23.3409 28.1088 23.508 28.1253 23.7187C28.2413 25.1985 29.0962 26.3808 29.9335 27.5339L31.2807 29.3807C31.688 29.8883 32.183 30.6104 32.5712 31.1439L37.2562 37.5936C37.567 38.0219 38.0106 38.6008 38.3185 39.068H30.8585C30.3338 38.8905 29.8628 38.6487 29.624 38.3261C29.2345 37.7999 28.7739 37.1519 28.3809 36.612L25.74 32.9643L24.7164 31.5437C24.434 31.1561 24.1172 30.7669 23.9104 30.3349C23.4312 29.3337 23.4439 28.0894 24.1141 27.1776C24.4043 26.7826 24.8007 26.4316 25.1543 26.089L26.4577 24.8198L27.6037 23.7066C27.7757 23.542 27.9882 23.328 28.1754 23.1748L28.2124 23.145Z" fill="url(#paint1_linear_313_73)"/>
<path d="M23.2656 11.9593C24.0294 11.3577 24.8004 11.3668 25.7249 11.4311C26.0857 11.4543 26.446 11.4867 26.8052 11.5281C29.639 11.8808 32.602 12.9935 33.748 15.8577C33.9594 16.3859 34.1194 16.9223 34.2873 17.4654L34.9431 19.5973C35.031 19.8856 35.6044 21.6035 35.5957 21.7941C35.5302 21.6845 35.4687 21.5443 35.4055 21.4275C34.9438 20.575 34.2115 20.0351 33.3895 19.5643C32.2583 18.9213 30.5868 18.4443 29.2934 18.3536C28.96 18.3302 28.5491 18.337 28.2104 18.3367L26.5434 18.3367C25.1089 18.3424 23.6744 18.3395 22.2399 18.3279C22.2367 16.7127 22.2931 13.3407 23.2264 12.0474C23.2441 12.0228 23.2535 12.0107 23.2621 11.9799C23.264 11.9732 23.2644 11.9662 23.2656 11.9593Z" fill="url(#paint2_linear_313_73)"/>
<path d="M23.2655 11.9593C23.2644 11.9661 23.2639 11.9732 23.2621 11.9799C23.2535 12.0107 23.2441 12.0228 23.2264 12.0474C22.2931 13.3407 22.2366 16.7127 22.2398 18.3279L22.2405 39.068H16.3202L16.304 39.068C16.2782 37.406 16.302 36.1859 16.3019 34.5177L16.3006 19.2418C16.2998 18.0489 16.3308 16.9929 17.2037 16.0635C17.6374 15.6019 18.1214 15.3195 18.6436 14.9793L19.8564 14.1858C20.9884 13.4368 22.1248 12.6946 23.2655 11.9593Z" fill="url(#paint3_linear_313_73)"/>
<defs>
<filter id="filter0_dd_313_73" x="12.542" y="7.90189" width="29.5266" height="35.1661" filterUnits="userSpaceOnUse" color-interpolation-filters="sRGB">
<feFlood flood-opacity="0" result="BackgroundImageFix"/>
<feColorMatrix in="SourceAlpha" type="matrix" values="0 0 0 0 0 0 0 0 0 0 0 0 0 0 0 0 0 0 127 0" result="hardAlpha"/>
<feMorphology radius="0.25" operator="erode" in="SourceAlpha" result="effect1_dropShadow_313_73"/>
<feOffset dy="0.25"/>
<feGaussianBlur stdDeviation="2"/>
<feComposite in2="hardAlpha" operator="out"/>
<feColorMatrix type="matrix" values="0 0 0 0 0.0470588 0 0 0 0 0.0470588 0 0 0 0 0.0509804 0 0 0 0.05 0"/>
<feBlend mode="normal" in2="BackgroundImageFix" result="effect1_dropShadow_313_73"/>
<feColorMatrix in="SourceAlpha" type="matrix" values="0 0 0 0 0 0 0 0 0 0 0 0 0 0 0 0 0 0 127 0" result="hardAlpha"/>
<feMorphology radius="0.5" operator="erode" in="SourceAlpha" result="effect2_dropShadow_313_73"/>
<feOffset dy="1"/>
<feGaussianBlur stdDeviation="1.5"/>
<feComposite in2="hardAlpha" operator="out"/>
<feColorMatrix type="matrix" values="0 0 0 0 0.0470588 0 0 0 0 0.0470588 0 0 0 0 0.0509804 0 0 0 0.1 0"/>
<feBlend mode="normal" in2="effect1_dropShadow_313_73" result="effect2_dropShadow_313_73"/>
<feBlend mode="normal" in="SourceGraphic" in2="effect2_dropShadow_313_73" result="shape"/>
</filter>
<linearGradient id="paint0_linear_313_73" x1="31.9884" y1="19.5643" x2="31.9884" y2="29.3807" gradientUnits="userSpaceOnUse">
<stop stop-color="#7FAFD8"/>
<stop offset="1" stop-color="#9C86CE"/>
</linearGradient>
<linearGradient id="paint1_linear_313_73" x1="26.0537" y1="24.6938" x2="37.4219" y2="40.7525" gradientUnits="userSpaceOnUse">
<stop stop-color="#D0A9E4"/>
<stop offset="0.399038" stop-color="#C1B2E5"/>
<stop offset="0.745192" stop-color="#A6CDE9"/>
<stop offset="1" stop-color="#A1D2E8"/>
</linearGradient>
<linearGradient id="paint2_linear_313_73" x1="22.2227" y1="16.1772" x2="35.604" y2="16.1772" gradientUnits="userSpaceOnUse">
<stop stop-color="#BE93CD"/>
<stop offset="0.5" stop-color="#BD82B8"/>
<stop offset="1" stop-color="#A6D0E6"/>
</linearGradient>
<linearGradient id="paint3_linear_313_73" x1="19.7788" y1="11.9593" x2="19.7788" y2="39.5684" gradientUnits="userSpaceOnUse">
<stop stop-color="#FBD3D0"/>
<stop offset="0.658654" stop-color="#FF91B6"/>
<stop offset="1" stop-color="#C3CDE5"/>
</linearGradient>
</defs>
</svg>
